<?xml version="1.0" encoding="iso-8859-1"?>
<!-- Generator: Adobe Illustrator 21.0.0, SVG Export Plug-In . SVG Version: 6.00 Build 0)  -->
<svg version="1.1"  xmlns="http://www.w3.org/2000/svg" xmlns:xlink="http://www.w3.org/1999/xlink" x="0px" y="0px"
	 viewBox="0 0 48 48" enable-background="new 0 0 48 48" xml:space="preserve">
<rect x="13" y="13" fill="#CCCCCC" width="22" height="22"/>
<path fill="#673AB7" d="M11.478,7.565h25.043c2.161,0,3.913,1.752,3.913,3.913v25.043c0,2.161-1.752,3.913-3.913,3.913H11.478
	c-2.161,0-3.913-1.752-3.913-3.913V11.478C7.565,9.317,9.317,7.565,11.478,7.565z M11.478,6C8.465,6,6,8.465,6,11.478v25.043
	C6,39.535,8.465,42,11.478,42h25.043C39.535,42,42,39.535,42,36.522V11.478C42,8.465,39.535,6,36.522,6H11.478z"/>
<circle fill="#F44336" cx="16.118" cy="16.107" r="6.092"/>
<ellipse transform="matrix(0.9536 -0.3011 0.3011 0.9536 -3.3652 10.354)" fill="#3F51B5" cx="31.907" cy="16.094" rx="6.092" ry="6.092"/>
<ellipse transform="matrix(0.9536 -0.3011 0.3011 0.9536 -8.0817 11.0808)" fill="#FF9800" cx="31.906" cy="31.758" rx="6.092" ry="6.092"/>
<ellipse transform="matrix(0.9536 -0.3011 0.3011 0.9536 -8.8097 6.3645)" fill="#4CAF50" cx="16.242" cy="31.762" rx="6.092" ry="6.092"/>
</svg>
